<?xml version="1.0" encoding="UTF-8"?>
<!DOCTYPE svg PUBLIC "-//W3C//DTD SVG 1.0//EN" "http://www.w3.org/TR/2001/REC-SVG-20010904/DTD/svg10.dtd">

<!-- =========================== -->
<!-- =========================== -->
<!-- ===  OIII weather zero  === -->
<!-- *************************** -->
<!-- Auteur  : Raphaël Grolimund -->
<!-- Date    : 2016-01-01        -->
<!-- Contact : grolimur@nous4.ch -->
<!-- Twitter : @grolimur         -->
<!-- Licence : CC BY 4.0         -->
<!-- =========================== -->
<!-- =========================== -->

<svg xmlns:svg="http://www.w3.org/2000/svg"  xmlns="http://www.w3.org/2000/svg" xmlns:xlink="http://www.w3.org/1999/xlink" version="1.0" width="1000" height="500" viewBox="0 0 1000 500">
<!-- Electric current symbol by Freepik, licensed under CC BY 3.0 (http://www.flaticon.com/free-icon/electric-current-symbol_18405) -->
<svg version="1.1" id="Capa_1" xmlns="http://www.w3.org/2000/svg" xmlns:xlink="http://www.w3.org/1999/xlink" x="100" y="200" width="200" height="200" viewBox="0 0 398.528 398.528" style="enable-background:new 0 0 398.528 398.528;" xml:space="preserve">
<path style="fill:#f00;" d="M315.232,9.015C311.883,3.276,305.681,0,298.244,0h-91.308c-10.9,0-22.224,7.113-26.93,16.924 
L83.17,218.041c-3.162,6.56-2.967,13.518,0.471,19.037c3.463,5.568,9.592,8.811,16.859,8.966l71.662,0.902l-51.877,129.675 
c-1.276,3.235-3.959,10.014,0.821,16.981c2.089,3.056,5.674,4.926,9.364,4.926h0.837c6.999,0,11.217-5.308,13.241-7.868 
L312.176,180.17c7.153-8.966,4.202-17.013,3.121-19.354c-1.122-2.243-5.625-9.592-17.046-9.592h-53.34l69.8-122.985 
C318.37,21.752,318.573,14.729,315.232,9.015z"/>
</svg>
<!-- end Electric current symbol -->
<!-- Plain cloud by Freepik, licensed under CC BY 3.0 (http://www.flaticon.com/free-icon/plain-cloud_63972) -->
<svg version="1.1" xmlns="http://www.w3.org/2000/svg" xmlns:xlink="http://www.w3.org/1999/xlink" x="50" y="10" width="320" height="320" viewBox="-2 0 50 50" style="enable-background:new -2 0 50 50;" xml:space="preserve">
<path style="fill:#404040;" d="M39.354,21.998c0.07-0.401,0.114-0.812,0.114-1.232c0-3.926-3.183-7.108-7.108-7.108c-0.855,0-1.674,0.159-2.436,0.437 
c-2.314-3.588-6.337-5.97-10.924-5.97c-7.18,0-13,5.82-13,13c0,0.337,0.025,0.668,0.051,0.999C2.576,22.996,0,26.131,0,29.875 
c0,4.418,3.582,8,8,8h30c4.418,0,8-3.582,8-8C46,25.92,43.126,22.643,39.354,21.998z"/>
</svg>
<!-- end Plain cloud -->
</svg>
