<?xml version="1.0" encoding="UTF-8"?>
<!DOCTYPE svg PUBLIC "-//W3C//DTD SVG 1.0//EN" "http://www.w3.org/TR/2001/REC-SVG-20010904/DTD/svg10.dtd">

<!-- =========================== -->
<!-- =========================== -->
<!-- ===  OIII weather two  ==== -->
<!-- *************************** -->
<!-- Auteur  : Raphaël Grolimund -->
<!-- Date    : 2016-01-01        -->
<!-- Contact : grolimur@nous4.ch -->
<!-- Twitter : @grolimur         -->
<!-- Licence : CC BY 4.0         -->
<!-- =========================== -->
<!-- =========================== -->

<svg xmlns:svg="http://www.w3.org/2000/svg"  xmlns="http://www.w3.org/2000/svg" xmlns:xlink="http://www.w3.org/1999/xlink" version="1.0" width="1000" height="500" viewBox="0 0 1000 500">
<!-- Sun sunny day weather symbol by Rami McMin, licensed under CC BY 3.0 (http://www.flaticon.com/free-icon/sun-sunny-day-weather-symbol_53565) -->
<svg version="1.1" id="Capa_1" xmlns="http://www.w3.org/2000/svg" xmlns:xlink="http://www.w3.org/1999/xlink" x="200" y="10" width="200" height="200" viewBox="0 0 612 612" style="enable-background:new 0 0 612 612;" xml:space="preserve">
<path style="fill:#ff0;" d="M104.914,306c0-14.478-11.75-26.229-26.229-26.229H26.229C11.75,279.771,0,291.522,0,306 
c0,14.479,11.75,26.229,26.229,26.229h52.457C93.164,332.229,104.914,320.479,104.914,306z M131.143,454.629 
c-7.239,0-13.796,2.938-18.553,7.676l-34.971,34.972c-4.739,4.756-7.676,11.313-7.676,18.552 
c0,14.479,11.733,26.229,26.229,26.229c7.239,0,13.796-2.938,18.535-7.693l34.972-34.972c4.756-4.738,7.694-11.295,7.694-18.534 
C157.372,466.379,145.639,454.629,131.143,454.629z M306,104.914c14.496,0,26.229-11.75,26.229-26.229V26.229 
C332.229,11.75,320.496,0,306,0c-14.496,0-26.229,11.75-26.229,26.229v52.457C279.771,93.164,291.504,104.914,306,104.914z 
M480.857,157.372c7.239,0,13.796-2.938,18.534-7.676l34.972-34.972c4.756-4.756,7.693-11.313,7.693-18.552 
c0-14.478-11.732-26.229-26.229-26.229c-7.238,0-13.796,2.938-18.552,7.694l-34.972,34.971 
c-4.738,4.739-7.676,11.296-7.676,18.535C454.629,145.621,466.361,157.372,480.857,157.372z M112.59,149.695 
c4.756,4.738,11.313,7.676,18.553,7.676c14.478,0,26.229-11.75,26.229-26.229c0-7.239-2.938-13.796-7.676-18.552l-34.972-34.971 
c-4.756-4.739-11.313-7.676-18.552-7.676c-14.478,0-26.229,11.75-26.229,26.229c0,7.239,2.938,13.796,7.676,18.535 
L112.59,149.695z M585.771,279.771h-52.457c-14.479,0-26.229,11.75-26.229,26.229c0,14.479,11.75,26.229,26.229,26.229h52.457 
C600.25,332.229,612,320.479,612,306C612,291.522,600.25,279.771,585.771,279.771z M499.409,462.305 
c-4.756-4.738-11.312-7.676-18.552-7.676c-14.479,0-26.229,11.75-26.229,26.229c0,7.239,2.938,13.796,7.676,18.534l34.972,34.972 
c4.756,4.756,11.313,7.693,18.552,7.693c14.479,0,26.229-11.75,26.229-26.229c0-7.238-2.938-13.796-7.676-18.552L499.409,462.305 
z M306,507.086c-14.496,0-26.229,11.75-26.229,26.229v52.457C279.771,600.25,291.504,612,306,612 
c14.496,0,26.229-11.75,26.229-26.229v-52.457C332.229,518.836,320.496,507.086,306,507.086z M306,122.4 
c-101.242,0-183.6,82.358-183.6,183.6S204.758,489.6,306,489.6S489.6,407.242,489.6,306S407.242,122.4,306,122.4z M306,437.143 
c-72.321,0-131.143-58.821-131.143-131.143c0-72.321,58.822-131.143,131.143-131.143c72.321,0,131.143,58.822,131.143,131.143 
C437.143,378.321,378.321,437.143,306,437.143z"/>
</svg>
<!-- end Sun sunny day weather symbol -->
<!-- Plain cloud by Freepik, licensed under CC BY 3.0 (http://www.flaticon.com/free-icon/plain-cloud_63972) -->
<svg version="1.1" xmlns="http://www.w3.org/2000/svg" xmlns:xlink="http://www.w3.org/1999/xlink" x="50" y="10" width="320" height="320" viewBox="-2 0 50 50" style="enable-background:new -2 0 50 50;" xml:space="preserve">
<path style="fill:#fff; stroke:#0080ff;" d="M39.354,21.998c0.07-0.401,0.114-0.812,0.114-1.232c0-3.926-3.183-7.108-7.108-7.108c-0.855,0-1.674,0.159-2.436,0.437 
c-2.314-3.588-6.337-5.97-10.924-5.97c-7.18,0-13,5.82-13,13c0,0.337,0.025,0.668,0.051,0.999C2.576,22.996,0,26.131,0,29.875 
c0,4.418,3.582,8,8,8h30c4.418,0,8-3.582,8-8C46,25.92,43.126,22.643,39.354,21.998z"/>
</svg>
<!-- end Plain cloud -->
</svg>
