<?xml version="1.0" encoding="UTF-8"?>
<!DOCTYPE svg PUBLIC "-//W3C//DTD SVG 1.0//EN" "http://www.w3.org/TR/2001/REC-SVG-20010904/DTD/svg10.dtd">

<!-- =========================== -->
<!-- =========================== -->
<!-- ===  OIII weather one  ==== -->
<!-- *************************** -->
<!-- Auteur  : Raphaël Grolimund -->
<!-- Date    : 2016-01-01        -->
<!-- Contact : grolimur@nous4.ch -->
<!-- Twitter : @grolimur         -->
<!-- Licence : CC BY 4.0         -->
<!-- =========================== -->
<!-- =========================== -->

<svg xmlns:svg="http://www.w3.org/2000/svg"  xmlns="http://www.w3.org/2000/svg" xmlns:xlink="http://www.w3.org/1999/xlink" version="1.0" width="1000" height="500" viewBox="0 0 1000 500">
<!-- Plain cloud by Freepik, licensed under CC BY 3.0 (http://www.flaticon.com/free-icon/plain-cloud_63972) -->
<svg version="1.1" xmlns="http://www.w3.org/2000/svg" xmlns:xlink="http://www.w3.org/1999/xlink" x="50" y="10" width="320" height="320" viewBox="-2 0 50 50" style="enable-background:new -2 0 50 50;" xml:space="preserve">
<path style="fill:#0080ff;" d="M39.354,21.998c0.07-0.401,0.114-0.812,0.114-1.232c0-3.926-3.183-7.108-7.108-7.108c-0.855,0-1.674,0.159-2.436,0.437 
c-2.314-3.588-6.337-5.97-10.924-5.97c-7.18,0-13,5.82-13,13c0,0.337,0.025,0.668,0.051,0.999C2.576,22.996,0,26.131,0,29.875 
c0,4.418,3.582,8,8,8h30c4.418,0,8-3.582,8-8C46,25.92,43.126,22.643,39.354,21.998z"/>
</svg>
<!-- end Plain cloud -->
</svg>
